# xmcd CD database file
#
# Track frame offsets:
#	150
#	17017
#	32107
#	62072
#	77097
#	100022
#	118325
#	135875
#	160382
#
# Disc length: 2377 seconds
#
# Revision: 0
# Processed by: cddbd v1.5.2PL0 Copyright (c) Steve Scherf et al.
# Submitted via: CDex 1.51
#
DISCID=6c094709
DTITLE=KGB Blues Band - Out of the Blue
DYEAR=1998
DGENRE=Blues
TTITLE0=Heartburn Baby
TTITLE1=Walk that Talk
TTITLE2=Sittin' and Waitin'
TTITLE3=Hard Workin' Woman
TTITLE4=As Time Flies
TTITLE5=Ain't Nobody's Business
TTITLE6=Just the Way it is
TTITLE7=Need a Little Keepin'
TTITLE8=A Man to Die for
EXTD=YEAR: 1998
EXTT0=
EXTT1=
EXTT2=
EXTT3=
EXTT4=
EXTT5=
EXTT6=
EXTT7=
EXTT8=
PLAYORDER=
